M48
; DRILL file {KiCad (5.1.5)-3} date 3/3/2020 10:45:04 PM
; FORMAT={-:-/ absolute / inch / decimal}
; #@! TF.CreationDate,2020-03-03T22:45:04-06:00
; #@! TF.GenerationSoftware,Kicad,Pcbnew,(5.1.5)-3
; #@! TF.FileFunction,Plated,1,2,PTH
FMAT,2
INCH
T1C0.0004
T2C0.0157
T3C0.0320
T4C0.0390
T5C0.0394
T6C0.0433
T7C0.0512
T8C0.1220
%
G90
G05
T1
X6.0466Y-2.9572
X6.2434Y-2.9572
X4.2966Y-2.9572
X4.4934Y-2.9572
X3.5466Y-2.9572
X3.7434Y-2.9572
X2.7966Y-3.7072
X2.9934Y-3.7072
X3.5466Y-3.7072
X3.7434Y-3.7072
X6.7966Y-2.9572
X6.9934Y-2.9572
X6.0466Y-4.4572
X6.2434Y-4.4572
X5.2966Y-5.2072
X5.4934Y-5.2072
X4.2966Y-5.9572
X4.4934Y-5.9572
X2.7966Y-5.9572
X2.9934Y-5.9572
X5.6716Y-5.9572
X5.8684Y-5.9572
X7.5072Y-5.6216
X7.5072Y-5.8184
X5.2966Y-4.4572
X5.4934Y-4.4572
X4.2966Y-3.7072
X4.4934Y-3.7072
X7.5466Y-2.9572
X7.7434Y-2.9572
X7.5072Y-4.1216
X7.5072Y-4.3184
X5.2966Y-2.9572
X5.4934Y-2.9572
X2.7966Y-2.2072
X2.9934Y-2.2072
X5.2966Y-3.7072
X5.4934Y-3.7072
X6.0466Y-3.7072
X6.2434Y-3.7072
X6.0466Y-5.2072
X6.2434Y-5.2072
X4.2966Y-2.2072
X4.4934Y-2.2072
X3.5466Y-2.2072
X3.7434Y-2.2072
X6.7966Y-5.2072
X6.9934Y-5.2072
X6.7966Y-4.4572
X6.9934Y-4.4572
X6.7966Y-5.9572
X6.9934Y-5.9572
X3.5466Y-5.9572
X3.7434Y-5.9572
X2.7966Y-2.9572
X2.9934Y-2.9572
X6.7966Y-3.7072
X6.9934Y-3.7072
X3.5466Y-5.2072
X3.7434Y-5.2072
T2
X5.65Y-1.955
X6.18Y-2.025
X6.24Y-2.025
X6.265Y-1.305
X6.31Y-1.955
X6.39Y-2.125
X6.425Y-1.62
X6.515Y-3.52
X6.545Y-4.795
X4.3281Y-2.71
X4.4619Y-2.71
X4.3261Y-4.22
X4.46Y-4.22
X6.8231Y-5.72
X6.9569Y-5.72
X2.8281Y-3.46
X2.9619Y-3.46
X3.5681Y-3.46
X3.7019Y-3.46
X3.5831Y-5.725
X3.7169Y-5.725
X6.8331Y-3.49
X6.9669Y-3.49
X5.3281Y-2.72
X5.4619Y-2.72
X7.5581Y-4.98
X7.6919Y-4.98
X3.5611Y-2.705
X3.695Y-2.705
X5.3331Y-4.225
X5.4669Y-4.225
X6.0831Y-3.48
X6.2169Y-3.48
X2.8331Y-4.22
X2.9669Y-4.22
X5.3231Y-4.975
X5.4569Y-4.975
X7.5681Y-2.725
X7.7019Y-2.725
X2.8231Y-2.715
X2.9569Y-2.715
X4.055Y-5.2581
X4.055Y-5.3919
X6.0831Y-4.23
X6.2169Y-4.23
X6.8281Y-4.225
X6.9619Y-4.225
X5.3231Y-3.485
X5.4569Y-3.485
X7.5881Y-3.5
X7.7219Y-3.5
X2.8281Y-5.72
X2.9619Y-5.72
X6.8281Y-2.725
X6.9619Y-2.725
X6.0881Y-4.98
X6.2219Y-4.98
X6.8181Y-4.975
X6.9519Y-4.975
X6.0831Y-2.725
X6.2169Y-2.725
X4.33Y-5.72
X4.4639Y-5.72
X4.3181Y-3.46
X4.4519Y-3.46
X3.5761Y-4.22
X3.71Y-4.22
X6.445Y-5.9881
X6.445Y-6.1219
T3
X6.325Y-1.57
X6.325Y-1.67
X6.325Y-1.77
X6.325Y-1.87
T4
X6.395Y-1.2825
X6.5919Y-1.2825
T5
X5.2031Y-4.2251
X5.6031Y-4.2251
X5.9531Y-3.4801
X6.3531Y-3.4801
X2.7031Y-4.2201
X3.1031Y-4.2201
X5.1931Y-4.9751
X5.5931Y-4.9751
X7.4381Y-2.7251
X7.8381Y-2.7251
X2.6931Y-2.7151
X3.0931Y-2.7151
X4.0551Y-5.1219
X4.0551Y-5.5219
X5.9531Y-4.2301
X6.3531Y-4.2301
X6.6981Y-4.2251
X7.0981Y-4.2251
X5.1931Y-3.4851
X5.5931Y-3.4851
X7.4581Y-3.5001
X7.8581Y-3.5001
X2.6981Y-5.7201
X3.0981Y-5.7201
X6.6981Y-2.7251
X7.0981Y-2.7251
X5.9581Y-4.9801
X6.3581Y-4.9801
X6.6881Y-4.9751
X7.0881Y-4.9751
X5.9531Y-2.7251
X6.3531Y-2.7251
X4.2001Y-5.7201
X4.6001Y-5.7201
X4.1881Y-3.4601
X4.5881Y-3.4601
X3.4462Y-4.2201
X3.8462Y-4.2201
X6.4451Y-5.8519
X6.4451Y-6.2519
X4.1981Y-2.7101
X4.5981Y-2.7101
X4.1962Y-4.2201
X4.5962Y-4.2201
X6.6931Y-5.7201
X7.0931Y-5.7201
X2.6981Y-3.4601
X3.0981Y-3.4601
X3.4381Y-3.4601
X3.8381Y-3.4601
X3.4531Y-5.7251
X3.8531Y-5.7251
X6.7031Y-3.4901
X7.1031Y-3.4901
X5.1981Y-2.7201
X5.5981Y-2.7201
X7.4281Y-4.9801
X7.8281Y-4.9801
X7.665Y-1.985
X7.7634Y-1.985
X7.8658Y-1.985
X3.4312Y-2.7051
X3.8312Y-2.7051
T6
X5.0012Y-1.42
X5.0012Y-2.02
X5.1013Y-1.42
X5.1013Y-2.02
X5.2012Y-1.42
X5.2012Y-2.02
X5.3012Y-1.42
X5.3012Y-2.02
X5.4013Y-1.42
X5.4013Y-2.02
X5.5012Y-1.42
X5.5012Y-2.02
X5.6013Y-1.42
X5.6013Y-2.02
X5.7012Y-1.42
X5.7012Y-2.02
X5.8012Y-1.42
X5.8012Y-2.02
X5.9013Y-1.42
X5.9013Y-2.02
X6.0012Y-1.42
X6.0012Y-2.02
X6.1013Y-1.42
X6.1013Y-2.02
T7
X6.3556Y-1.3805
X6.6316Y-1.3805
T8
X5.995Y-2.995
X6.045Y-2.895
X6.245Y-2.895
X6.295Y-2.995
X4.245Y-2.995
X4.295Y-2.895
X4.495Y-2.895
X4.545Y-2.995
X3.495Y-2.995
X3.545Y-2.895
X3.745Y-2.895
X3.795Y-2.995
X2.745Y-3.745
X2.795Y-3.645
X2.995Y-3.645
X3.045Y-3.745
X3.495Y-3.745
X3.545Y-3.645
X3.745Y-3.645
X3.795Y-3.745
X6.745Y-2.995
X6.795Y-2.895
X6.995Y-2.895
X7.045Y-2.995
X5.995Y-4.495
X6.045Y-4.395
X6.245Y-4.395
X6.295Y-4.495
X5.245Y-5.245
X5.295Y-5.145
X5.495Y-5.145
X5.545Y-5.245
X4.245Y-5.995
X4.295Y-5.895
X4.495Y-5.895
X4.545Y-5.995
X2.745Y-5.995
X2.795Y-5.895
X2.995Y-5.895
X3.045Y-5.995
X5.62Y-5.995
X5.67Y-5.895
X5.87Y-5.895
X5.92Y-5.995
X7.445Y-5.62
X7.445Y-5.82
X7.545Y-5.57
X7.545Y-5.87
X5.245Y-4.495
X5.295Y-4.395
X5.495Y-4.395
X5.545Y-4.495
X4.245Y-3.745
X4.295Y-3.645
X4.495Y-3.645
X4.545Y-3.745
X7.495Y-2.995
X7.545Y-2.895
X7.745Y-2.895
X7.795Y-2.995
X7.445Y-4.12
X7.445Y-4.32
X7.545Y-4.07
X7.545Y-4.37
X5.245Y-2.995
X5.295Y-2.895
X5.495Y-2.895
X5.545Y-2.995
X2.745Y-2.245
X2.795Y-2.145
X2.995Y-2.145
X3.045Y-2.245
X5.245Y-3.745
X5.295Y-3.645
X5.495Y-3.645
X5.545Y-3.745
X5.995Y-3.745
X6.045Y-3.645
X6.245Y-3.645
X6.295Y-3.745
X5.995Y-5.245
X6.045Y-5.145
X6.245Y-5.145
X6.295Y-5.245
X4.245Y-2.245
X4.295Y-2.145
X4.495Y-2.145
X4.545Y-2.245
X3.495Y-2.245
X3.545Y-2.145
X3.745Y-2.145
X3.795Y-2.245
X6.745Y-5.245
X6.795Y-5.145
X6.995Y-5.145
X7.045Y-5.245
X6.745Y-4.495
X6.795Y-4.395
X6.995Y-4.395
X7.045Y-4.495
X6.745Y-5.995
X6.795Y-5.895
X6.995Y-5.895
X7.045Y-5.995
X3.495Y-5.995
X3.545Y-5.895
X3.745Y-5.895
X3.795Y-5.995
X2.745Y-2.995
X2.795Y-2.895
X2.995Y-2.895
X3.045Y-2.995
X6.745Y-3.745
X6.795Y-3.645
X6.995Y-3.645
X7.045Y-3.745
X3.495Y-5.245
X3.545Y-5.145
X3.745Y-5.145
X3.795Y-5.245
T0
M30
