M48
; DRILL file {KiCad (5.1.5)-3} date 3/8/2020 8:17:21 PM
; FORMAT={-:-/ absolute / inch / decimal}
; #@! TF.CreationDate,2020-03-08T20:17:21-05:00
; #@! TF.GenerationSoftware,Kicad,Pcbnew,(5.1.5)-3
; #@! TF.FileFunction,NonPlated,1,2,NPTH
FMAT,2
INCH
T1C0.0472
T2C0.0591
T3C0.0689
T4C0.1200
T5C0.1570
T6C0.1851
%
G90
G05
T1
X6.4934Y-1.2349
T3
X3.445Y-5.345
X3.845Y-5.345
X5.195Y-3.845
X5.595Y-3.845
X2.695Y-6.095
X3.095Y-6.095
X3.445Y-3.095
X3.845Y-3.095
X4.195Y-6.095
X4.595Y-6.095
X4.195Y-3.095
X4.595Y-3.095
X5.195Y-4.595
X5.595Y-4.595
X4.195Y-2.345
X4.595Y-2.345
X3.445Y-6.095
X3.845Y-6.095
X5.195Y-3.095
X5.595Y-3.095
X2.695Y-3.095
X3.095Y-3.095
X3.445Y-3.845
X3.845Y-3.845
X6.695Y-3.095
X7.095Y-3.095
X5.945Y-5.345
X6.345Y-5.345
X5.57Y-6.095
X5.97Y-6.095
X3.445Y-2.345
X3.845Y-2.345
X2.695Y-3.845
X3.095Y-3.845
X6.695Y-4.595
X7.095Y-4.595
X5.195Y-5.345
X5.595Y-5.345
X7.645Y-5.52
X7.645Y-5.92
X5.945Y-3.095
X6.345Y-3.095
X7.645Y-4.02
X7.645Y-4.42
X6.695Y-5.345
X7.095Y-5.345
X6.695Y-3.845
X7.095Y-3.845
X5.945Y-3.845
X6.345Y-3.845
X2.695Y-2.345
X3.095Y-2.345
X7.445Y-3.095
X7.845Y-3.095
X4.195Y-3.845
X4.595Y-3.845
X6.695Y-6.095
X7.095Y-6.095
X5.945Y-4.595
X6.345Y-4.595
T4
X7.92Y-3.7515
X7.92Y-4.6885
X5.299Y-6.37
X6.236Y-6.37
X7.92Y-5.249
X7.92Y-6.186
T5
X2.895Y-6.095
X3.645Y-3.095
X4.395Y-6.095
X4.395Y-3.095
X5.395Y-4.595
X4.395Y-2.345
X7.32Y-3.7515
X7.32Y-4.6885
X3.645Y-6.095
X5.395Y-3.095
X2.895Y-3.095
X5.299Y-5.77
X6.236Y-5.77
X3.645Y-3.845
X6.895Y-3.095
X6.145Y-5.345
X5.77Y-6.095
X3.645Y-2.345
X2.895Y-3.845
X7.32Y-5.249
X7.32Y-6.186
X6.895Y-4.595
X5.395Y-5.345
X7.645Y-5.72
X6.145Y-3.095
X7.645Y-4.22
X6.895Y-5.345
X6.895Y-3.845
X6.145Y-3.845
X2.895Y-2.345
X7.645Y-3.095
X4.395Y-3.845
X6.895Y-6.095
X6.145Y-4.595
X3.645Y-5.345
X5.395Y-3.845
T6
X4.595Y-4.895
X6.51Y-5.645
X7.8138Y-1.4
X3.275Y-5.785
X5.595Y-2.37
X3.275Y-2.405
T2
G00X7.1526Y-1.8326
M15
G01X7.2037Y-1.8326
M16
G05
G00X7.1526Y-2.2736
M15
G01X7.2037Y-2.2736
M16
G05
T0
M30
